<svg xmlns="http://www.w3.org/2000/svg" width="512" height="128" viewBox="0 0 512 128" shape-rendering="crispEdges"><g transform="translate(0 0)"><path d="M43 78h42l9 31H34z" fill="#334b55"/><circle cx="64" cy="54" r="17" fill="#c98a5a"/><path d="M47 49q17-24 34 0v15H47z" fill="#6b4435"/><path d="M51 58h26v11H51z" fill="#211a22"/><path d="M48 91h10v18H48zM70 91h10v18H70z" fill="#6b4435"/><path d="M30 106V28" stroke="#70452e" stroke-width="4"/><path d="M33 30h35l-7 25H33z" fill="#8e3e3d"/><path d="M43 34v16M38 39h15" stroke="#eadcae" stroke-width="3"/></g><g transform="translate(128 2)"><path d="M43 78h42l9 31H34z" fill="#334b55"/><circle cx="64" cy="54" r="17" fill="#c98a5a"/><path d="M47 49q17-24 34 0v15H47z" fill="#6b4435"/><path d="M51 58h26v11H51z" fill="#211a22"/><path d="M48 91h10v18H48zM70 91h10v18H70z" fill="#6b4435"/><path d="M30 106V28" stroke="#70452e" stroke-width="4"/><path d="M33 30h35l-7 25H33z" fill="#8e3e3d"/><path d="M43 34v16M38 39h15" stroke="#eadcae" stroke-width="3"/></g><g transform="translate(256 0)"><path d="M43 78h42l9 31H34z" fill="#334b55"/><circle cx="64" cy="54" r="17" fill="#c98a5a"/><path d="M47 49q17-24 34 0v15H47z" fill="#6b4435"/><path d="M51 58h26v11H51z" fill="#211a22"/><path d="M48 91h10v18H48zM70 91h10v18H70z" fill="#6b4435"/><path d="M30 106V28" stroke="#70452e" stroke-width="4"/><path d="M33 30h35l-7 25H33z" fill="#8e3e3d"/><path d="M43 34v16M38 39h15" stroke="#eadcae" stroke-width="3"/></g><g transform="translate(384 -1)"><path d="M43 78h42l9 31H34z" fill="#334b55"/><circle cx="64" cy="54" r="17" fill="#c98a5a"/><path d="M47 49q17-24 34 0v15H47z" fill="#6b4435"/><path d="M51 58h26v11H51z" fill="#211a22"/><path d="M48 91h10v18H48zM70 91h10v18H70z" fill="#6b4435"/><path d="M30 106V28" stroke="#70452e" stroke-width="4"/><path d="M33 30h35l-7 25H33z" fill="#8e3e3d"/><path d="M43 34v16M38 39h15" stroke="#eadcae" stroke-width="3"/></g></svg>