<svg xmlns="http://www.w3.org/2000/svg" width="512" height="128" viewBox="0 0 512 128" shape-rendering="crispEdges"><g transform="translate(0 0)"><path d="M31 76h66l10 33H21z" fill="#51352d"/><circle cx="64" cy="53" r="19" fill="#c98a5a"/><path d="M38 47q10-24 26-24t26 24v38H38z" fill="#6f756f"/><path d="M45 58h38v14H45z" fill="#211a22"/><path d="M40 91h14v18H40zM74 91h14v18H74z" fill="#6f756f"/></g><g transform="translate(128 2)"><path d="M31 76h66l10 33H21z" fill="#51352d"/><circle cx="64" cy="53" r="19" fill="#c98a5a"/><path d="M38 47q10-24 26-24t26 24v38H38z" fill="#6f756f"/><path d="M45 58h38v14H45z" fill="#211a22"/><path d="M40 91h14v18H40zM74 91h14v18H74z" fill="#6f756f"/></g><g transform="translate(256 0)"><path d="M31 76h66l10 33H21z" fill="#51352d"/><circle cx="64" cy="53" r="19" fill="#c98a5a"/><path d="M38 47q10-24 26-24t26 24v38H38z" fill="#6f756f"/><path d="M45 58h38v14H45z" fill="#211a22"/><path d="M40 91h14v18H40zM74 91h14v18H74z" fill="#6f756f"/></g><g transform="translate(384 -1)"><path d="M31 76h66l10 33H21z" fill="#51352d"/><circle cx="64" cy="53" r="19" fill="#c98a5a"/><path d="M38 47q10-24 26-24t26 24v38H38z" fill="#6f756f"/><path d="M45 58h38v14H45z" fill="#211a22"/><path d="M40 91h14v18H40zM74 91h14v18H74z" fill="#6f756f"/></g></svg>